# xmcd
#
# Track frame offsets: 
#        150
#        5885
#        22525
#        36912
#        55462
#        76367
#        93570
#        111245
#        125992
#        142002
#        159232
#        177452
#        191432
#        198622
#        213222
#        229197
#
# Disc length: 3278 seconds
#
# Revision: 1
# Processed by: cddbd v1.5.2PL0 Copyright (c) Steve Scherf et al.
# Submitted via: ExactAudioCopyFreeDBPlugin 1.0
#
DISCID=e20ccc10
DTITLE=Electric Light Orchestra - Time
DYEAR=1981
DGENRE=
TTITLE0=Prologue
TTITLE1=Twilight
TTITLE2=Yours Truly, 2095
TTITLE3=Ticket To The Moon
TTITLE4=The Way Life's Meant To Be
TTITLE5=Another Heart Breaks
TTITLE6=Rain Is Falling
TTITLE7=From The End Of The World
TTITLE8=The Lights Go Down
TTITLE9=Here Is The News
TTITLE10=21st Century Man
TTITLE11=Hold On Tight
TTITLE12=Epilogue
TTITLE13=The Bouncer
TTITLE14=When Time Stood Still
TTITLE15=Julie Don't Live Here
EXTD=
EXTT0=
EXTT1=
EXTT2=
EXTT3=
EXTT4=
EXTT5=
EXTT6=
EXTT7=
EXTT8=
EXTT9=
EXTT10=
EXTT11=
EXTT12=
EXTT13=
EXTT14=
EXTT15=
PLAYORDER=
